
<svg xmlns="http://www.w3.org/2000/svg" xmlns:xlink="http://www.w3.org/1999/xlink" viewBox="0 0 751.14 126.94">
<path d="M292.68,37.1s-6.4,2.6-13.8,10.8-11.8,17.4-8.6,19.9c1.2.9,4.1,1.1,9.2-3.5a41.78,41.78,0,0,0,10.9-15.1c3.4-8.2,2.3-12,2.3-12.1m40.7,14.8c-8.3-4.2-14.3-9.4-20.6-12.6-6-3.1-9.9-4.4-14.7-3.7a13.39,13.39,0,0,0-2,.5s2.5,8.5-7.4,22.9c-10.1,14.5-19.2,14.4-21.8,10.4-2.7-4.2.8-12.8,6.6-20.4,6.1-8,16.9-14.6,16.9-14.6s-3.4-2.1-11.9,2.7c-8.2,4.6-22.4,15.8-35.6,34.5s-15.8,29-17.7,37.1-.2,16.8,8.8,16.8,19.5-13.7,22.4-18.5c5.5-8.9,9.1-22.5,1.6-20.6-3.7.9-6.7,5-8.5,8.9a39,39,0,0,0-2.7,7.9,31.56,31.56,0,0,0-7.3,4.2,50.64,50.64,0,0,0-6.9,6.1s0-6.5,5.2-17,14.6-15.3,20-15.7c4.8-.4,11.1,3.7,5.8,18.9s-21.1,33.6-37.6,33.8c-15.3.2-25.3-19.3-4-53.3,23.5-37.6,51.1-49.1,60.1-50.4S294,32.5,294,32.5a37.66,37.66,0,0,1,17-2.8c10.9.7,19.4,8.5,30.6,13.9-2.9,2.7-5.7,5.6-8.2,8.3m49.2-12.6c-7.6,4.9-18.1,9.3-28.1,8.3-2.5,2.6-5.3,5.7-8,9,17.5,3.5,32.8-7.4,40.9-16.6A55.44,55.44,0,0,0,395,29.1a72.75,72.75,0,0,1-12.4,10.2m-23.3,49.2a6,6,0,0,0,.3-.7,1.69,1.69,0,0,0-1.6-1.5c-1.7-.1-3.9.2-9.9,6.8a95.61,95.61,0,0,0-12.7,18c-3.4,6.2-4.8,10.9-2.8,12.1a3,3,0,0,0,2.1.2c1.3-.3,2.8-1.6,5.1-4.2,1.1-1.2,2.3-3,3.7-4.9,3.9-5.5,13.8-22.4,15.8-25.8m-61.9,7.2c1-2.6,2.3-7.7-.4-9.7s-10,2.9-10.1,8,5.1,7.6,6.3,7.9c.7.2.9.2,1.3-.4a36.53,36.53,0,0,0,2.9-5.8m-5.4,9.5a22.69,22.69,0,0,1-5-3.2,15.61,15.61,0,0,1-3.7-4.5c-.1-.2-.2,0-.3.1a75.27,75.27,0,0,0-4.4,6.2c-3.9,5.7-9.7,17.3-4.4,19.3,3.4,1.3,9.1-4.7,12.2-8.7a67.92,67.92,0,0,0,5.7-8.7c.2-.4.1-.4-.1-.5m60.5,13.5c-1.5,2.3-3.1,6.8,1.7,4,5.8-3.4,14.1-16,14.1-16h3.8a136.92,136.92,0,0,1-11.4,15c-5.9,6.6-13.1,12.5-18.2,11.9-5.9-.7-4.1-8.5-4.1-8.5s-8.5,9-14.4,8.4c-7.9-.9-5.5-10.7-5.5-10.7s-9,11-15.1,10.7c-9.6-.6-7.2-12.2-4.5-20.4,1.4-4.4,2.8-7.8,2.8-7.8l-3,.6c-1.1.2-3,.3-3,.3s-4,7-7.2,11.3-16.8,18.8-24.7,15.9c-7.4-2.7-4.9-14-.6-23,6.3-13.1,23.9-31.9,34.1-29.4,10.5,2.6.2,21.8.2,21.8a.1.1,0,0,0,.1.1,4.64,4.64,0,0,0,2-.1,23.26,23.26,0,0,0,3.9-1.2s10.6-22.2,22.3-36.7,35.1-39.5,44.2-33.5c2.2,1.5,1.2,6.6-1.8,12.8-1.3.4-2.7.8-4.1,1.1,2-3.7,3.4-6.8,3.8-8.9,1.4-7.5-16.1,8.3-28.7,25.3a235,235,0,0,0-20,32.4,54,54,0,0,0,6.5-4.6,186.15,186.15,0,0,0,15.9-14.8,174.75,174.75,0,0,0,13.5-15.6c1.4-.1,2.7-.2,4-.4a183.31,183.31,0,0,1-14.9,17.6c-5,5-10.4,10.5-15.1,14.4a123,123,0,0,1-13.2,9.8s-10.9,22.1-5,23.5c3.5.8,10.4-9.8,10.4-9.8s9-13.8,14.5-20c7.4-8.4,13.8-13.3,20.2-13.4,3.7-.1,5.9,3.9,5.9,3.9l1.8-2.7h10.8c-.2,0-20.3,34.1-22,36.7m30.1-79.4c-7.6,4.9-18.1,9.3-28.1,8.3-2.5,2.6-5.3,5.7-8,9,17.5,3.5,32.8-7.4,40.9-16.6A55.44,55.44,0,0,0,395,29.1a72.75,72.75,0,0,1-12.4,10.2M231.28,56h-10.2l-5.8,9.4h10.2Zm-48.4,32.4c4.4-6,16.4-26.9,16.4-26.9a1.69,1.69,0,0,0-1.6-1.5c-1.7-.1-4.4.5-9.9,7.4s-9.8,12.4-12.9,18.1c-3.4,6.2-4.9,10.6-2.9,11.8a3,3,0,0,0,2.1.2c1.3-.3,2.9-1.6,5.2-4.2.9-1.3,2.1-3,3.6-4.9m-55-28.3c-2.8-2.1-10,2.9-10.1,8s6.5,6.7,7.4,6.8a.87.87,0,0,0,1-.4,40.4,40.4,0,0,0,2.1-4.6c1-2.7,2.2-7.8-.4-9.8m-4.3,18a24.82,24.82,0,0,1-5.6-2.5,12.48,12.48,0,0,1-4-4.4c-.1-.2-.2,0-.3.1s-.7.9-4.5,6.5S99.58,95,105,97c3.4,1.3,9.2-4.7,12.3-8.7,2.9-3.7,6.3-9.4,6.5-9.7s0-.4-.2-.5m83.7,3.5h3.8s-18.8,27.2-29.4,25.9c-5.9-.7-4.2-8-4.2-8s-8.4,9.8-16,7.8C154.58,105.5,159,94,159,94c-.8.3-15.8,17.2-26.4,13.2-11-4.3-5.3-18.4-3.2-22.7,1.8-3.6,3.8-7.1,3.8-7.1s-1.7.5-2.8.7-2.6.5-2.6.5-5.2,8.5-8.4,12.7-16.8,18.8-24.8,15.9-6-14.1-1.5-23c7.3-14.4,24.6-32.1,35-29.4s1.8,19.7,1.8,19.7,2.1.3,7.1-3.2c7.2-4.9,16.7-18.2,27.1-16.6,4.8.7,9.4,5.7,3.2,15.1-2,3-5.3,5.7-7.8,3.1-1.6-1.7-.2-4.7,1.5-6.8a6.27,6.27,0,0,1,5.6-2.5s1.7-3.9-2.6-3.8c-3.5.1-12.4,8.2-17.4,16.5-4.8,7.7-11.7,20.6-4.8,23.4,6.4,2.6,18.6-11.9,24.3-19.5s18.5-24.8,29.3-25.5c3.7-.2,5.9,3.1,5.9,3.1l1.2-2h10.8S193,89.7,191.38,92.3c-1.2,2-2.9,6.5,1.7,4s14.2-14.7,14.2-14.7m-5.9,54.4a44.14,44.14,0,0,0-27.1-7.9,16.71,16.71,0,0,0-13.2,7.2c-4.1-7.2-12.3-11.6-24.9-11.5-20.3.2-40.5,9.6-56.5,9.6-15.3,0-26.5-9.6-26.1-26.8.7-30,26-57,45-69.2,10.9-7,20-9.1,26-8.4,4.4.5,9.6,5.5,6.3,12.9-4.9,10.9-11.6,9.9-11.3,4.8a8.22,8.22,0,0,1,4.1-6.6,10.22,10.22,0,0,1,3.9-1c1-.8,1.7-6.7-6.1-4.8s-17.2,9.6-26.2,19.5S72.38,82.4,69,102c-1.6,9.1-.5,25.7,21,25.5,18.3-.2,45.3-12.2,70.1-12a47.66,47.66,0,0,1,24.5,6.7c6.4,4.1,14.1,9.9,16.8,13.8"/>
<path d="M429.92,56.1c0-3.24,1.92-5.28,4.92-5.28s4.92,2,4.92,5.28v55.08c0,13.8-6.6,21.12-18.84,21.12-8.64,0-16.92-4.44-16.92-9.12a3.81,3.81,0,0,1,4-4.08c1.32,0,2.4.36,4.32,1.8,3.24,2.28,5.16,2.88,8.64,2.88,6.12,0,9-3.6,9-11.52Z"/>
<path d="M502.76,101.7c0,17.76-11,30.6-26.28,30.6s-26.28-12.84-26.28-30.36c0-18,10.92-30.84,26.28-30.84S502.76,83.94,502.76,101.7ZM460,101.58c0,13.56,6.48,22.2,16.44,22.2s16.44-8.76,16.44-22.08-6.48-22.08-16.44-22.08S460,88.38,460,101.58Z"/>
<path d="M513.2,76.38c0-3.24,1.92-5.28,4.92-5.28s4.92,2,4.92,5.28v31.68c0,10.44,4.68,15.72,13.8,15.72s13.92-5.28,13.92-15.72V76.38c0-3.24,1.92-5.28,4.92-5.28s4.92,2,4.92,5.28v32c0,15-8.88,23.88-23.76,23.88s-23.64-8.88-23.64-23.88Z"/>
<path d="M583.76,81.42c3.36-6.24,8.64-10.32,13.56-10.32,3.12,0,5.4,2,5.4,5s-1.92,4.56-6.12,5.4c-8.28,1.56-13.2,7.8-13.08,17V127c0,3.24-1.92,5.28-4.92,5.28s-4.92-2-4.92-5.28V76.38c0-3.24,1.92-5.28,4.92-5.28s4.92,2,4.92,5.28v5Z"/>
<path d="M619.88,79c4.56-5.4,9.72-7.92,16.44-7.92,12.6,0,20.88,9,20.88,22.68V127c0,3.24-1.92,5.28-4.92,5.28s-4.92-2-4.92-5.28V94.38c0-8.76-5.64-14.76-13.92-14.76s-13.8,6-13.8,14.76V127c0,3.24-1.92,5.28-4.92,5.28s-4.92-2-4.92-5.28V76.38c0-3.24,1.92-5.28,4.92-5.28s4.92,2,4.92,5.28v2.4Z"/>
<path d="M676.52,105.54c.36,6.36,1.8,10.08,5.16,13.44s7.44,4.8,12.72,4.8c6.12,0,10.44-1.56,15.84-5.88,2.28-1.8,3.24-2.28,4.32-2.28,1.8,0,3.48,1.92,3.48,4.2,0,5.76-13.2,12.48-24.36,12.48-16.2,0-27-12.12-27-30.36,0-17.88,11.28-30.84,26.64-30.84,14.64,0,25.92,12.6,25.92,28.92,0,4.08-1.44,5.52-5.52,5.52ZM709.4,98.1c-.48-11.64-6.6-18.48-16.56-18.48s-15.48,6.24-16.32,18.48Z"/>
<path d="M724.4,80.82a22.53,22.53,0,0,1-1.32-5.52,4.42,4.42,0,0,1,4.56-4.2,5.22,5.22,0,0,1,4.92,3.72l13.68,41h.24l13.44-41c.84-2.4,2.52-3.72,4.68-3.72a4.42,4.42,0,0,1,4.56,4.2,18.7,18.7,0,0,1-1.32,5.52l-25,71.4a5.23,5.23,0,0,1-4.8,3.6,4.34,4.34,0,0,1-4.56-4.2c0-1.2.36-2.4,1.44-5.4l6.36-16.8Z"/>
<path d="M782.33,85.1a1.3,1.3,0,0,1-1.41,1.44,1.28,1.28,0,0,1-1.36-1.44V74.81h-3.21a1,1,0,0,1-1.08-1.12,1,1,0,0,1,1.08-1.11h9.18a1.12,1.12,0,0,1,0,2.23h-3.2Zm9.54.15a1.28,1.28,0,1,1-2.56,0V74.63c0-1.51.72-2.27,2.13-2.27a2.16,2.16,0,0,1,2.26,1.33l3.35,8.78,3.31-8.78a2.13,2.13,0,0,1,2.2-1.33c1.44,0,2.16.76,2.16,2.27V85.25a1.28,1.28,0,1,1-2.56,0V75.53h-.07l-3.64,9.75c-.32.94-.71,1.26-1.44,1.26s-1.11-.32-1.44-1.26l-3.63-9.75h-.07Z"/>
</svg>