<svg xmlns="http://www.w3.org/2000/svg" xmlns:xlink="http://www.w3.org/1999/xlink" width="23" height="23" version="1.1" viewBox="0 0 23 23"><title>Group 3</title><desc>Created with Sketch.</desc><g id="Page-1" fill="none" fill-rule="evenodd" stroke="none" stroke-width="1"><g id="article_desktop" transform="translate(-524.000000, -350.000000)"><g id="Group-14" transform="translate(127.000000, 346.000000)"><g id="Group-4-Copy" transform="translate(398.000000, 0.000000)"><g id="Group" transform="translate(0.000000, 5.000000)"><g id="Group-3"><circle id="Oval" cx="10.5" cy="10.5" r="10.5" stroke="#767676" stroke-width="1.333"/><g id="Group-2" fill="#767676" transform="translate(9.153846, 3.769231)"><path id="Rectangle-2" d="M0.807692308,0 L0.807692308,0 C1.25376845,-8.19428583e-17 1.61538462,0.361616164 1.61538462,0.807692308 L1.61538462,8.34615385 C1.61538462,8.79222999 1.25376845,9.15384615 0.807692308,9.15384615 L0.807692308,9.15384615 C0.361616164,9.15384615 -1.67416033e-16,8.79222999 -2.22044605e-16,8.34615385 L1.11022302e-16,0.807692308 C5.63937303e-17,0.361616164 0.361616164,8.19428583e-17 0.807692308,0 Z"/><path id="Rectangle-2-Copy" d="M2.60061329,7.16817279 L2.60061329,7.16817279 C3.04668943,7.16817279 3.4083056,7.52978895 3.4083056,7.9758651 L3.4083056,11.7450959 C3.4083056,12.191172 3.04668943,12.5527882 2.60061329,12.5527882 L2.60061329,12.5527882 C2.15453714,12.5527882 1.79292098,12.191172 1.79292098,11.7450959 L1.79292098,7.9758651 C1.79292098,7.52978895 2.15453714,7.16817279 2.60061329,7.16817279 Z" transform="translate(2.600613, 9.860480) rotate(-51.000000) translate(-2.600613, -9.860480)"/></g></g></g></g></g></g></g></svg>