<svg xmlns="http://www.w3.org/2000/svg" xmlns:svg="http://www.w3.org/2000/svg" id="svg2" width="502.107" height="97.973" version="1.1" viewBox="0 0 502.107 97.973" xml:space="preserve"><metadata id="metadata8"/><g id="g10" transform="matrix(1.3333333,0,0,-1.3333333,0,97.973333)"><g id="g12" transform="scale(0.1)"><path style="fill:#f0f0f0;fill-opacity:1;fill-rule:nonzero;stroke:none" id="path14" d="m 1640.21,678.906 c 0,0 -43.76,-17.539 -94.86,-73.816 -51.29,-56.449 -80.68,-119.59 -58.79,-136.281 8.47,-6.496 27.9,-7.52 63.3,24.355 27.69,24.785 55.8,57.246 74.79,103.77 22.87,55.742 15.56,81.336 15.56,81.972 m 279.53,-101.074 c -56.76,28.965 -98.29,64.492 -141.42,86.699 -41.2,21.082 -67.71,29.891 -100.99,25.43 -5.58,-0.742 -13.73,-3.488 -13.73,-3.488 0,0 17.29,-58.426 -51.06,-156.817 -69.01,-99.636 -131.56,-99.156 -149.39,-71.582 -18.67,28.867 5.38,87.824 45.51,140.305 42.16,54.785 116.1,100.332 116.1,100.332 0,0 -23.49,14.375 -81.45,-18.469 C 1486.87,648.223 1389.34,572.09 1299.2,443.594 1209.17,315.262 1191.13,244.543 1178.26,188.855 c -12.98,-55.535 -1.07,-115.2534 60.53,-115.2534 61.7,0 133.39,94.2184 153.65,126.9454 37.67,60.945 62.15,154.461 11.05,141.59 -25.33,-6.375 -45.81,-34.453 -58.58,-61.219 -13.3,-27.688 -18.55,-54.133 -18.55,-54.133 0,0 -21.37,-7.625 -50.03,-29.031 -28.63,-21.465 -47.42,-41.953 -47.42,-41.953 0,0 0.22,44.48 35.73,116.426 35.31,72 100.34,104.882 137.24,107.957 33.28,2.785 76.42,-25.438 39.93,-129.579 C 1405.32,146.523 1297.28,20.3828 1183.85,18.5469 1079,17.168 1010.44,150.867 1156.15,384.031 c 161.08,258.02 350.36,337.16 411.85,346.055 61.38,8.859 81.43,-18.231 81.43,-18.231 0,0 51.41,23.817 116.65,19.364 75.22,-5.156 133.28,-58.211 209.78,-95.438 -20.06,-19.375 -39.06,-39.336 -56.12,-57.949 m 336.93,86.914 c -51.92,-33.367 -123.82,-63.621 -193.05,-57.078 -17.47,-18.09 -36.15,-38.898 -55.05,-61.867 120.09,-23.613 224.93,50.644 280.83,113.953 34.77,39.492 51.93,74.797 51.93,74.797 0,0 -33.25,-36.758 -84.66,-69.805 M 2097.23,326.844 c 1.61,2.629 2.13,5.039 2.13,5.039 0,0 -1.19,10.097 -10.93,10.519 -11.38,0.43 -26.94,-1.711 -67.72,-46.941 -40.67,-45.023 -65.34,-84.121 -86.8,-123.305 -23.4,-42.644 -32.84,-74.4607 -19.31,-82.7224 3.75,-2.3633 9.53,-2.5195 14.15,-1.4453 9.01,2.3047 19.33,10.7812 35.09,28.9137 7.41,8.481 15.46,20.547 25.23,33.965 26.94,36.75 94.74,152.641 108.16,175.977 m -424.29,-49.356 c 6.86,17.805 15.45,52.785 -2.69,66.43 -19.3,14.684 -68.79,-19.594 -68.98,-54.738 -0.23,-35.84 34.86,-52.149 43.34,-54.356 4.82,-1.386 6.44,-1.183 8.8,2.684 1.39,2.531 12.76,22.109 19.53,39.98 M 1635.7,212.09 c -1.39,0.43 -17.39,7.723 -34.01,21.551 -16.63,13.847 -25.01,29.726 -25.64,31.027 -0.64,1.18 -1.4,0.262 -2.16,-0.762 -0.64,-0.957 -3.74,-3.644 -30.03,-42.383 -26.41,-38.73 -66.86,-118.789 -30.16,-132.3042 23.51,-8.6329 62.56,32.3512 83.81,59.6682 19.74,25.324 38.31,57.508 39.37,59.871 1.08,2.25 0.1,2.844 -1.18,3.332 m 415.37,-92.293 c -9.86,-15.824 -21.13,-46.4103 11.7,-27.3087 39.81,23.1877 96.89,109.6097 96.89,109.6097 h 25.77 c 0,0 -33.91,-53.758 -78.13,-102.7933 -40.65,-44.9609 -90.13,-85.7305 -124.9,-81.8047 -40.76,4.8516 -28.01,58.2539 -28.01,58.2539 0,0 -58.37,-62.0351 -98.61,-57.7383 -54.29,6.1172 -37.77,73.4024 -37.77,73.4024 0,0 -61.49,-75.6953 -103.33,-73.4024 -65.67,3.9766 -49.25,84.1794 -31.01,140.1994 9.77,30.047 18.99,53.765 18.99,53.765 0,0 -6.65,-1.773 -20.71,-3.765 -7.19,-1.067 -20.6,-1.82 -20.6,-1.82 0,0 -27.25,-48.34 -49.14,-77.411 -21.9,-29.1402 -114.83,-129.093375 -169.65,-108.9723 -50.65,18.336 -33.91,96.0353 -4.51,157.5153 43.04,89.817 163.96,218.907 233.7,202.004 72.22,-17.539 1.61,-149.582 1.61,-149.582 0,0 0.12,-0.429 0.76,-0.691 1.51,-0.656 5.26,-1.028 13.96,0.691 13.82,2.629 26.5,7.949 26.5,7.949 0,0 72.64,152.258 152.9,251.887 80.26,99.629 240.47,271.317 303.35,229.793 15.46,-10.137 8.48,-45.34 -12.24,-87.984 -9.22,-2.903 -18.67,-5.469 -28.41,-7.461 13.93,25.113 23.04,46.305 25.75,61.16 9.43,51.395 -110.74,-57.031 -196.58,-173.887 -85.75,-116.847 -137.27,-222.597 -137.27,-222.597 0,0 17.39,9.812 44.33,31.601 28.23,22.695 66.85,58.309 108.91,101.824 28.43,29.297 61.7,66.106 92.94,107.2 9.23,0.488 18.34,1.394 27.24,2.793 -34.77,-46.778 -71.25,-89.598 -102.36,-121.047 -34.13,-34.598 -71.14,-71.942 -103.56,-99.09 -51.17,-43.137 -90.76,-67.547 -90.76,-67.547 0,0 -75.12,-151.3516 -34.35,-161.0742 24.04,-5.7344 71.48,67.3982 71.48,67.3982 0,0 61.79,94.375 99.14,136.867 50.76,57.891 94.64,91.368 138.43,91.961 25.52,0.528 40.55,-26.668 40.55,-26.668 l 11.91,18.555 h 74.03 c 0,0 -137.76,-234.133 -148.94,-251.785 m 205.6,544.949 c -51.92,-33.367 -123.82,-63.621 -193.05,-57.078 -17.47,-18.09 -36.15,-38.898 -55.05,-61.867 120.09,-23.613 224.93,50.644 280.83,113.953 34.77,39.492 51.93,74.797 51.93,74.797 0,0 -33.25,-36.758 -84.66,-69.805 M 1219.58,549.395 h -70.29 l -39.69,-64.278 h 70.27 z M 887.043,327.059 c 29.832,40.937 112.344,184.511 112.344,184.511 0,0 -1.496,10.09 -11.157,10.508 -11.375,0.488 -30.261,-3.32 -68.132,-50.644 -37.891,-47.313 -67.071,-85.086 -88.418,-124.2 -23.399,-42.761 -33.7,-72.968 -20.188,-81.074 3.656,-2.305 9.563,-2.574 14.067,-1.492 8.796,2.137 20.281,10.937 35.945,29.133 7.297,8.523 15.762,19.851 25.539,33.258 M 509.98,520.957 c -19.421,14.695 -68.789,-19.687 -69.003,-54.727 -0.313,-35.996 44.648,-46.25 50.332,-46.457 0,0 5.039,-1.406 7.082,2.903 1.277,2.625 7.285,13.945 14.168,31.758 6.75,17.863 15.437,52.839 -2.579,66.523 M 480.684,397.246 c -1.18,0.359 -19.95,5.731 -38.106,17.313 -18.125,11.699 -26.484,28.976 -27.137,30.16 -0.761,1.121 -1.398,0.269 -2.14,-0.746 -0.75,-0.973 -4.727,-6.012 -31.024,-44.754 C 355.891,360.488 316.836,281.086 353.43,267.5 c 23.472,-8.684 62.859,32.566 84.109,59.836 19.746,25.32 43.359,64.215 44.324,66.465 0.969,2.359 0.102,2.898 -1.179,3.445 m 574.086,-23.672 h 25.74 c 0,0 -128.877,-186.386 -201.733,-177.961 -40.886,4.668 -28.867,54.942 -28.867,54.942 0,0 -57.09,-66.961 -109.441,-53.653 -47.539,12.18 -16.848,91.368 -16.848,91.368 -5.484,-2.149 -108.484,-118.36 -180.711,-90.516 -75.644,29.238 -36.472,126.406 -22.109,155.594 12.258,24.629 25.652,48.722 25.652,48.722 0,0 -11.59,-3.332 -18.765,-4.992 -7.2,-1.668 -18.247,-3.808 -18.247,-3.808 0,0 -35.742,-58.219 -57.632,-87.293 -21.77,-29.036 -114.805,-128.973 -169.641,-109.075 -54.832,19.953 -41.316,96.621 -10.527,157.512 49.914,98.895 168.371,220.254 239.621,202.168 72.105,-18.406 12.566,-135.422 12.566,-135.422 0,0 14.363,-1.816 48.699,21.633 49.477,33.738 114.719,124.637 185.434,114.004 33.25,-4.942 64.156,-39.055 21.894,-103.82 -13.539,-20.704 -36.281,-39.375 -53.769,-21.024 -10.727,11.367 -1.281,32.188 10.074,46.516 16.008,20.222 38.11,17.437 38.11,17.437 0,0 11.687,26.817 -17.922,26.34 -24.16,-0.535 -84.883,-56.613 -119.325,-113.312 -31.543,-51.993 -79.191,-140.672 -31.222,-159.942 43.887,-17.762 127.566,81.66 166.316,133.598 38.645,52.156 126.946,170.191 200.996,175.125 25.325,1.609 40.657,-21.68 40.657,-21.68 l 8.57,13.574 h 73.94 c 0,0 -139.385,-232.91 -150.335,-250.566 -8.574,-13.84 -19.949,-44.844 11.594,-27.402 31.555,17.492 97.231,101.933 97.231,101.933 M 1014.63,0.410156 C 958.508,39.7969 890.371,57.0703 828.352,54.707 765.676,52.0508 737.559,5.3125 737.559,5.3125 709.23,54.707 653.328,84.9297 566.941,84.2266 427.461,82.5664 289.148,18.0156 179.484,18.0156 74.3086,18.0156 -2.51953,84.2266 0.0585938,201.57 4.46484,407.219 178.398,592.801 308.242,676.219 c 74.793,48.136 137.344,62.297 178.242,57.734 29.817,-3.32 65.774,-37.762 43.125,-88.582 -33.261,-74.402 -79.187,-68.293 -77.468,-32.617 0.855,23.027 16.304,37.617 27.898,45.555 7.297,5.097 20.274,6.543 27.149,6.711 6.433,5.574 11.484,46.179 -42.059,32.773 C 411.57,684.383 347.09,631.902 285.703,564.043 224.324,496.277 128.828,367.832 105.215,233.008 94.1602,170.555 101.57,56.7109 249.531,57.9297 c 125.578,1.082 310.774,83.8673 480.957,82.3123 66.094,-0.547 123.606,-18.289 168.36,-46.1404 44.211,-27.1485 97.011,-66.6914 115.782,-93.691444"/><path style="fill:#f0f0f0;fill-opacity:1;fill-rule:nonzero;stroke:none" id="path16" d="m 2604.38,52.7422 c 10.57,8.6914 15.85,20.5195 15.85,35.5 0,14.4418 -4.95,25.9378 -14.84,34.4998 -9.89,8.559 -23.66,12.832 -41.32,12.832 H 2451.36 V 39.707 h 109.11 c 18.71,0 33.35,4.3438 43.91,13.0352 z M 2451.36,259.52 v -89.852 h 96.67 c 17.12,0 29.74,4.344 37.91,13.039 8.15,8.688 12.23,19.461 12.23,32.293 0,13.367 -4.48,24.133 -13.43,32.297 -8.97,8.141 -21.87,12.223 -38.71,12.223 z m 195.35,-127.957 c 9.63,-13.106 14.44,-28.34 14.44,-45.7232 0,-15.5195 -3.82,-29.3554 -11.43,-41.5156 -7.63,-12.1758 -18.79,-21.7344 -33.5,-28.6797 C 2601.51,8.67969 2583.99,5.21484 2563.67,5.21484 H 2411.65 V 294.023 h 139.19 c 18.18,0 33.83,-3.281 46.93,-9.835 13.1,-6.551 23.07,-15.508 29.89,-26.875 6.81,-11.368 10.22,-24.129 10.22,-38.301 0,-12.301 -2.87,-23.805 -8.62,-34.5 -5.75,-10.696 -14.78,-19.25 -27.07,-25.672 20.05,-5.082 34.89,-14.172 44.52,-27.277"/><path style="fill:#f0f0f0;fill-opacity:1;fill-rule:nonzero;stroke:none" id="path18" d="m 2851.69,45.5273 c 12.03,6.8165 21.45,16.3086 28.27,28.4766 6.83,12.168 10.24,25.7305 10.24,40.7151 0,14.969 -3.41,28.484 -10.24,40.515 -6.82,12.032 -16.24,21.454 -28.27,28.282 -12.04,6.816 -25.27,10.222 -39.72,10.222 -14.44,0 -27.67,-3.406 -39.7,-10.222 -12.05,-6.828 -21.47,-16.25 -28.29,-28.282 -6.81,-12.031 -10.23,-25.546 -10.23,-40.515 0,-14.9846 3.42,-28.5471 10.23,-40.7151 6.82,-12.168 16.24,-21.6601 28.29,-28.4766 12.03,-6.8164 25.26,-10.2343 39.7,-10.2343 14.45,0 27.68,3.4179 39.72,10.2343 z M 2751.2,15.2422 c -17.78,10.1562 -31.69,23.9297 -41.72,41.3086 -10.02,17.3828 -15.04,36.7695 -15.04,58.1682 0,21.394 5.02,40.781 15.04,58.164 10.03,17.379 23.94,31.082 41.72,41.109 17.78,10.031 38.04,15.051 60.77,15.051 22.73,0 42.99,-5.02 60.77,-15.051 17.79,-10.027 31.69,-23.73 41.72,-41.109 10.03,-17.383 15.04,-36.77 15.04,-58.164 0,-21.3987 -5.01,-40.7854 -15.04,-58.1682 C 2904.43,39.1719 2890.53,25.3984 2872.74,15.2422 2854.96,5.07813 2834.7,0 2811.97,0 c -22.73,0 -42.99,5.07813 -60.77,15.2422"/><path style="fill:#f0f0f0;fill-opacity:1;fill-rule:nonzero;stroke:none" id="path20" d="M 3018.15,306.855 V 58.1641 c 0,-6.9649 1.94,-12.1094 5.81,-15.4493 3.88,-3.3398 9.03,-5.0117 15.45,-5.0117 5.35,0 11.23,1.2032 17.65,3.6055 V 6.41797 c -7.22,-2.94141 -15.52,-4.41406 -24.87,-4.41406 -16.05,0 -28.82,4.34375 -38.3,13.03519 -9.51,8.6914 -14.25,20.5156 -14.25,35.4961 V 306.855 h 38.51"/><path style="fill:#f0f0f0;fill-opacity:1;fill-rule:nonzero;stroke:none" id="path22" d="m 3099.17,223.828 h 38.52 V 5.21484 h -38.52 z m 1.21,39.707 c -4.81,4.539 -7.23,10.293 -7.23,17.246 0,6.953 2.42,12.703 7.23,17.246 4.82,4.551 10.83,6.825 18.05,6.825 7.21,0 13.24,-2.274 18.04,-6.825 4.82,-4.543 7.23,-10.293 7.23,-17.246 0,-6.953 -2.41,-12.707 -7.23,-17.246 -4.8,-4.551 -10.83,-6.816 -18.04,-6.816 -7.22,0 -13.23,2.265 -18.05,6.816"/><path style="fill:#f0f0f0;fill-opacity:1;fill-rule:nonzero;stroke:none" id="path24" d="M 3408.04,223.828 3313.37,5.21484 h -46.53 L 3172.18,223.828 h 42.92 l 75.41,-182.9217 75.81,182.9217 h 41.72"/><path style="fill:#f0f0f0;fill-opacity:1;fill-rule:nonzero;stroke:none" id="path26" d="m 3445.73,223.828 h 38.52 V 5.21484 h -38.52 z m 1.21,39.707 c -4.81,4.539 -7.22,10.293 -7.22,17.246 0,6.953 2.41,12.703 7.22,17.246 4.82,4.551 10.83,6.825 18.05,6.825 7.22,0 13.24,-2.274 18.05,-6.825 4.81,-4.543 7.22,-10.293 7.22,-17.246 0,-6.953 -2.41,-12.707 -7.22,-17.246 -4.81,-4.551 -10.83,-6.816 -18.05,-6.816 -7.22,0 -13.23,2.265 -18.05,6.816"/><path style="fill:#f0f0f0;fill-opacity:1;fill-rule:nonzero;stroke:none" id="path28" d="m 3672.57,50.9375 c 15.91,11.4922 24.67,29.9492 26.27,55.3635 h -56.96 c -49.74,0 -74.6,-12.4455 -74.6,-37.3088 0,-10.9649 4.6,-19.5977 13.83,-25.8789 9.23,-6.2774 21.46,-9.4219 36.7,-9.4219 20.6,0 38.84,5.75 54.76,17.2461 z m 93.26,-12.0312 V 6.81641 c -4.81,-2.14063 -11.1,-3.21485 -18.86,-3.21485 -12.03,0 -22.46,3.07813 -31.28,9.23044 -8.82,6.1524 -14.04,15.1055 -15.64,26.875 -8.83,-12.832 -20.8,-22.5976 -35.91,-29.2773 -15.11,-6.6797 -31.62,-10.031262 -49.53,-10.031262 -24.34,0 -44.73,5.878902 -61.17,17.648462 -16.45,11.7656 -24.67,28.3398 -24.67,49.7344 0,21.9257 9.42,39.1137 28.27,51.5547 18.86,12.43 46.87,18.652 84.04,18.652 h 57.76 v 2.805 c 0,16.844 -5.69,29.949 -17.04,39.305 -11.37,9.367 -26.68,14.043 -45.93,14.043 -12.31,0 -24.61,-2.004 -36.91,-6.016 -12.3,-4.016 -23,-9.766 -32.08,-17.246 l -21.26,28.078 c 11.49,9.891 25.4,17.313 41.71,22.262 16.31,4.941 33.02,7.422 50.14,7.422 30.49,0 54.62,-7.625 72.4,-22.871 17.79,-15.243 26.67,-36.239 26.67,-62.977 V 54.5508 c 0,-11.7695 6.03,-17.6485 18.06,-17.6485 4.28,0 8.02,0.6641 11.23,2.004"/></g></g></svg>