<svg xmlns="http://www.w3.org/2000/svg" xmlns:xlink="http://www.w3.org/1999/xlink" width="42" height="42" version="1.1" viewBox="0 0 42 42"><title>Group 15</title><desc>Created with Sketch.</desc><g id="Page-1" fill="none" fill-rule="evenodd" stroke="none" stroke-width="1"><g id="nav-home-page-" transform="translate(-1234.000000, -4212.000000)"><g id="footer" transform="translate(-1.000000, 4026.000000)"><g id="Social"><g transform="translate(1079.000000, 187.000000)"><g id="Group-15" transform="translate(156.859701, 0.000000)"><ellipse id="Oval-4" cx="20.284" cy="20.054" stroke="#D6D5D5" stroke-width=".9" rx="20.284" ry="20.054"/><path id="YouTube" fill="#B7B7B7" d="M18.0298507,24.9565217 L18.0298507,16.9347826 L24.3402985,20.9458723 L18.0298507,24.9565217 Z M32.827678,14.3703239 C32.5374135,13.2748368 31.6822033,12.411821 30.5961529,12.1189784 C28.6276734,11.5869565 20.7342245,11.5869565 20.7342245,11.5869565 C20.7342245,11.5869565 12.8409833,11.5869565 10.8725039,12.1189784 C9.78645339,12.411821 8.93124318,13.2748368 8.64097868,14.3703239 C8.11343284,16.356497 8.11343284,20.4998952 8.11343284,20.4998952 C8.11343284,20.4998952 8.11343284,24.643503 8.64097868,26.6294664 C8.93124318,27.7249536 9.78645339,28.588179 10.8725039,28.880812 C12.8409833,29.4130435 20.7342245,29.4130435 20.7342245,29.4130435 C20.7342245,29.4130435 28.6276734,29.4130435 30.5961529,28.880812 C31.6822033,28.588179 32.5374135,27.7249536 32.827678,26.6294664 C33.3552239,24.643503 33.3552239,20.4998952 33.3552239,20.4998952 C33.3552239,20.4998952 33.3552239,16.356497 32.827678,14.3703239 L32.827678,14.3703239 Z"/></g></g></g></g></g></g></svg>